# xmcd
#
# Track frame offsets:
#	150
#	25169
#	44718
#	65352
#	85892
#	109255
#	129066
#	156162
#	172103
#	190928
#	208806
#	226210
#	246941
#	273410
#
# Disc length: 4789 seconds
#
# Revision: 2
# Processed by: cddbd v1.5.2PL0 Copyright (c) Steve Scherf et al.
# Submitted via: audiograbber 1.83.01
#
DISCID=c412b30e
DTITLE=Various Artist - Blue Rose Nuggets 26
DYEAR=2007
DGENRE=Country Rock
TTITLE0=Jason Isbell - Brand New Kind Of Actress
TTITLE1=Say Zuzu - You Don´t Know Me
TTITLE2=The Pinetops - Linger
TTITLE3=Robyn Habel - Carry Me
TTITLE4=The Shines - All My Wishes
TTITLE5=Rainravens - 4th Of July
TTITLE6=Mother Hips - Mission In Vain
TTITLE7=Todd Thibaud - Suffer Me
TTITLE8=Dashboard Saviors - Watching You
TTITLE9=Tim Easton - Hummingbird
TTITLE10=Buffalo Tom - Three Easy Pieces
TTITLE11=Michaell Hall and The Woodpeckers - A Heart Is A Home
TTITLE12=Mike Grier - Wrong
TTITLE13=Elliot Murphy - A Touch Of Kindness
EXTD=
EXTT0=
EXTT1=
EXTT2=
EXTT3=
EXTT4=
EXTT5=
EXTT6=
EXTT7=
EXTT8=
EXTT9=
EXTT10=
EXTT11=
EXTT12=
EXTT13=
PLAYORDER=
